<svg width="335" height="87" viewBox="0 0 335 87" fill="none" xmlns="http://www.w3.org/2000/svg">
<path fill-rule="evenodd" clip-rule="evenodd" d="M39.2962 64.5094C38.3261 64.6303 37.3424 64.6923 36.349 64.6923C22.7634 64.6923 11 53.0956 11 37.8462C11 22.5967 22.7634 11 36.349 11C49.9346 11 61.6979 22.5967 61.6979 37.8462H72.6979C72.6979 16.9443 56.424 0 36.349 0C16.274 0 0 16.9443 0 37.8462C0 58.748 16.274 75.6923 36.349 75.6923C37.3412 75.6923 38.3241 75.6509 39.2962 75.5697V64.5094Z" fill="url(#paint0_angular)"/>
<path d="M72.4661 37.1851V39.3414L65.4348 39.7789C67.3098 42.1122 68.2473 44.6747 68.2473 47.4664C68.2473 50.7372 67.1536 53.3935 64.9661 55.4351C62.7994 57.456 59.8828 58.4664 56.2161 58.4664C54.6744 58.4664 53.5911 58.4039 52.9661 58.2789C51.7369 58.9247 50.7994 59.6851 50.1536 60.5601C49.5078 61.4351 49.1848 62.3622 49.1848 63.3414C49.1848 64.4247 49.5911 65.2164 50.4036 65.7164C51.2369 66.2164 52.6223 66.4664 54.5598 66.4664H60.4973C64.1848 66.4664 67.0078 67.2164 68.9661 68.7164C70.9244 70.1955 71.9036 72.3935 71.9036 75.3101C71.9036 78.8935 70.4453 81.6539 67.5286 83.5914C64.6328 85.5497 60.4973 86.5289 55.1223 86.5289C50.8515 86.5289 47.539 85.706 45.1848 84.0601C42.8515 82.4143 41.6848 80.1226 41.6848 77.1851C41.6848 74.8518 42.4036 72.9143 43.8411 71.3726C45.2994 69.831 47.2682 68.7789 49.7473 68.2164C48.7265 67.7789 47.9036 67.1643 47.2786 66.3726C46.6744 65.5601 46.3723 64.633 46.3723 63.5914C46.3723 61.3205 47.8203 59.3205 50.7161 57.5914C48.7369 56.7789 47.1953 55.508 46.0911 53.7789C44.9869 52.0289 44.4348 50.0289 44.4348 47.7789C44.4348 44.383 45.5078 41.6643 47.6536 39.6226C49.8203 37.5601 52.7369 36.5289 56.4036 36.5289C58.6328 36.5289 60.3619 36.7476 61.5911 37.1851H72.4661ZM44.9661 76.9039C44.9661 81.5705 48.4348 83.9039 55.3723 83.9039C64.289 83.9039 68.7473 81.0601 68.7473 75.3726C68.7473 73.331 68.0494 71.8518 66.6536 70.9351C65.2578 70.0185 62.9973 69.5601 59.8723 69.5601H54.3098C48.0807 69.5601 44.9661 72.008 44.9661 76.9039ZM47.5598 47.7789C47.5598 50.4039 48.3515 52.4455 49.9348 53.9039C51.539 55.3414 53.6744 56.0601 56.3411 56.0601C59.1744 56.0601 61.3411 55.3414 62.8411 53.9039C64.3619 52.4664 65.1223 50.383 65.1223 47.6539C65.1223 44.758 64.3411 42.5914 62.7786 41.1539C61.2369 39.6955 59.0703 38.9664 56.2786 38.9664C53.5703 38.9664 51.4348 39.7476 49.8723 41.3101C48.3307 42.8518 47.5598 45.008 47.5598 47.7789ZM92.8411 36.5289C94.2786 36.5289 95.8203 36.6747 97.4661 36.9664L96.8723 39.9351C95.4557 39.581 93.9869 39.4039 92.4661 39.4039C89.5703 39.4039 87.1953 40.633 85.3411 43.0914C83.4869 45.5497 82.5598 48.6539 82.5598 52.4039V71.1539H79.4661V37.1851H82.0911L82.4036 43.3101H82.6223C84.0182 40.8101 85.5078 39.0601 87.0911 38.0601C88.6744 37.0393 90.5911 36.5289 92.8411 36.5289ZM118.122 71.7789C113.185 71.7789 109.331 70.258 106.56 67.2164C103.81 64.1747 102.435 59.9143 102.435 54.4351C102.435 49.0185 103.768 44.6851 106.435 41.4351C109.102 38.1643 112.695 36.5289 117.216 36.5289C121.216 36.5289 124.372 37.9247 126.685 40.7164C128.997 43.508 130.154 47.2997 130.154 52.0914V54.5914H105.685C105.727 59.258 106.81 62.8205 108.935 65.2789C111.081 67.7372 114.143 68.9664 118.122 68.9664C120.06 68.9664 121.758 68.831 123.216 68.5601C124.695 68.2893 126.56 67.706 128.81 66.8101V69.6226C126.893 70.456 125.122 71.0185 123.497 71.3101C121.872 71.6226 120.081 71.7789 118.122 71.7789ZM117.216 39.2789C113.945 39.2789 111.32 40.3622 109.341 42.5289C107.362 44.6747 106.206 47.7789 105.872 51.8414H126.872C126.872 47.9039 126.018 44.831 124.31 42.6226C122.602 40.3935 120.237 39.2789 117.216 39.2789ZM153.247 71.7789C148.31 71.7789 144.456 70.258 141.685 67.2164C138.935 64.1747 137.56 59.9143 137.56 54.4351C137.56 49.0185 138.893 44.6851 141.56 41.4351C144.227 38.1643 147.82 36.5289 152.341 36.5289C156.341 36.5289 159.497 37.9247 161.81 40.7164C164.122 43.508 165.279 47.2997 165.279 52.0914V54.5914H140.81C140.852 59.258 141.935 62.8205 144.06 65.2789C146.206 67.7372 149.268 68.9664 153.247 68.9664C155.185 68.9664 156.883 68.831 158.341 68.5601C159.82 68.2893 161.685 67.706 163.935 66.8101V69.6226C162.018 70.456 160.247 71.0185 158.622 71.3101C156.997 71.6226 155.206 71.7789 153.247 71.7789ZM152.341 39.2789C149.07 39.2789 146.445 40.3622 144.466 42.5289C142.487 44.6747 141.331 47.7789 140.997 51.8414H161.997C161.997 47.9039 161.143 44.831 159.435 42.6226C157.727 40.3935 155.362 39.2789 152.341 39.2789ZM198.341 71.1539V49.1226C198.341 45.706 197.622 43.2268 196.185 41.6851C194.747 40.1226 192.518 39.3414 189.497 39.3414C185.435 39.3414 182.456 40.3726 180.56 42.4351C178.685 44.4768 177.747 47.7997 177.747 52.4039V71.1539H174.654V37.1851H177.279L177.872 41.8414H178.06C180.268 38.2997 184.195 36.5289 189.841 36.5289C197.549 36.5289 201.404 40.6643 201.404 48.9351V71.1539H198.341ZM226.747 36.5289C231.497 36.5289 235.07 38.0289 237.466 41.0289C239.883 44.008 241.091 48.3726 241.091 54.1226C241.091 59.7685 239.82 64.1226 237.279 67.1851C234.758 70.2476 231.206 71.7789 226.622 71.7789C224.206 71.7789 222.029 71.2789 220.091 70.2789C218.154 69.2789 216.622 67.8622 215.497 66.0289H215.216L214.341 71.1539H212.404V22.5289H215.497V34.7476C215.497 36.581 215.456 38.2685 215.372 39.8101L215.279 42.4664H215.497C216.789 40.4247 218.341 38.9247 220.154 37.9664C221.987 37.008 224.185 36.5289 226.747 36.5289ZM226.685 39.3414C222.685 39.3414 219.82 40.4872 218.091 42.7789C216.362 45.0705 215.497 48.8518 215.497 54.1226V54.6539C215.497 59.7789 216.393 63.456 218.185 65.6851C219.997 67.9143 222.81 69.0289 226.622 69.0289C230.331 69.0289 233.122 67.7372 234.997 65.1539C236.872 62.5497 237.81 58.8518 237.81 54.0601C237.81 44.2476 234.102 39.3414 226.685 39.3414ZM264.247 71.7789C259.31 71.7789 255.456 70.258 252.685 67.2164C249.935 64.1747 248.56 59.9143 248.56 54.4351C248.56 49.0185 249.893 44.6851 252.56 41.4351C255.227 38.1643 258.82 36.5289 263.341 36.5289C267.341 36.5289 270.497 37.9247 272.81 40.7164C275.122 43.508 276.279 47.2997 276.279 52.0914V54.5914H251.81C251.852 59.258 252.935 62.8205 255.06 65.2789C257.206 67.7372 260.268 68.9664 264.247 68.9664C266.185 68.9664 267.883 68.831 269.341 68.5601C270.82 68.2893 272.685 67.706 274.935 66.8101V69.6226C273.018 70.456 271.247 71.0185 269.622 71.3101C267.997 71.6226 266.206 71.7789 264.247 71.7789ZM263.341 39.2789C260.07 39.2789 257.445 40.3622 255.466 42.5289C253.487 44.6747 252.331 47.7789 251.997 51.8414H272.997C272.997 47.9039 272.143 44.831 270.435 42.6226C268.727 40.3935 266.362 39.2789 263.341 39.2789ZM288.747 71.1539H285.654V22.5289H288.747V71.1539ZM309.122 69.0289C311.081 69.0289 312.789 68.8622 314.247 68.5289V71.0289C312.747 71.5289 311.018 71.7789 309.06 71.7789C306.06 71.7789 303.841 70.9768 302.404 69.3726C300.987 67.7685 300.279 65.2476 300.279 61.8101V39.8726H295.247V38.0601L300.279 36.6539L301.841 28.9664H303.435V37.1851H313.404V39.8726H303.435V61.3726C303.435 63.9768 303.893 65.9039 304.81 67.1539C305.727 68.4039 307.164 69.0289 309.122 69.0289Z" fill="url(#paint1_radial)"/>
<path d="M334 42.0513C334 47.9506 329.547 52.6154 324.194 52.6154C318.84 52.6154 314.387 47.9506 314.387 42.0513C314.387 36.152 318.84 31.4872 324.194 31.4872C329.547 31.4872 334 36.152 334 42.0513Z" fill="#C4C4C4" fill-opacity="0.03" stroke="#B5B5B5" stroke-width="2"/>
<path d="M321.813 41.218H322.785C323.438 41.218 323.91 41.0969 324.203 40.8547C324.496 40.6125 324.643 40.2531 324.643 39.7766C324.643 39.2922 324.485 38.9445 324.168 38.7336C323.852 38.5226 323.375 38.4172 322.739 38.4172H321.813V41.218ZM321.813 42.3781V45.8H320.412V37.2336H322.832C323.938 37.2336 324.756 37.4406 325.287 37.8547C325.819 38.2687 326.084 38.8937 326.084 39.7297C326.084 40.7961 325.53 41.5558 324.42 42.009L326.84 45.8H325.246L323.196 42.3781H321.813Z" fill="#A6A6A6"/>
<defs>
<radialGradient id="paint0_angular" cx="0" cy="0" r="1" gradientUnits="userSpaceOnUse" gradientTransform="translate(27.5073 34.6923) rotate(70.5427) scale(45.7132 44.6119)">
<stop offset="0.00241478" stop-color="#06FED2"/>
<stop offset="1" stop-color="#92F856"/>
</radialGradient>
<radialGradient id="paint1_radial" cx="0" cy="0" r="1" gradientUnits="userSpaceOnUse" gradientTransform="translate(30.4546 57.8205) rotate(-0.0874584) scale(344.333 1434.59)">
<stop/>
<stop offset="0.570099" stop-opacity="0.388002"/>
<stop offset="1" stop-opacity="0"/>
</radialGradient>
</defs>
</svg>
